<svg xmlns="http://www.w3.org/2000/svg" viewBox="0 0 880 230" role="img" aria-label="조용민 Yongmin Cho, AI를 프로덕션까지 도달시키는 엔지니어. LIVE airlens.cloud">
  <defs>
    <style>
      .sans{font-family:-apple-system,'Segoe UI','Pretendard',sans-serif}
      .mono{font-family:ui-monospace,'SF Mono',Menlo,Consolas,monospace}
    </style>
  </defs>
  <rect width="880" height="230" rx="12" fill="#0A0C10"/>
  <g stroke="#1A1F2A" stroke-width="1">
    <path d="M0 57.5H880M0 115.5H880M0 172.5H880"/>
    <path d="M110.5 0V230M220.5 0V230M330.5 0V230M440.5 0V230M550.5 0V230M660.5 0V230M770.5 0V230"/>
  </g>
  <g fill="#232936">
    <circle cx="705" cy="52" r="1.6"/><circle cx="742" cy="38" r="1.6"/><circle cx="778" cy="60" r="1.6"/>
    <circle cx="812" cy="44" r="1.6"/><circle cx="690" cy="84" r="1.6"/><circle cx="731" cy="72" r="1.6"/>
    <circle cx="769" cy="92" r="1.6"/><circle cx="806" cy="78" r="1.6"/><circle cx="838" cy="64" r="1.6"/>
    <circle cx="718" cy="108" r="1.6"/><circle cx="757" cy="118" r="1.6"/><circle cx="793" cy="106" r="1.6"/>
    <circle cx="828" cy="96" r="1.6"/><circle cx="846" cy="118" r="1.6"/><circle cx="700" cy="132" r="1.6"/>
  </g>
  <path d="M700 130 Q760 40 830 96" fill="none" stroke="#D7FF3F" stroke-width="1" opacity="0.5">
    <animate attributeName="opacity" values="0.15;0.6;0.15" dur="3.4s" repeatCount="indefinite"/>
  </path>
  <circle r="2.4" fill="#D7FF3F">
    <animateMotion dur="3.4s" repeatCount="indefinite" path="M700 130 Q760 40 830 96"/>
  </circle>
  <g class="mono" font-size="12">
    <circle cx="48" cy="46" r="3.5" fill="#43D9AD">
      <animate attributeName="opacity" values="1;0.3;1" dur="2s" repeatCount="indefinite"/>
    </circle>
    <text x="60" y="50" fill="#43D9AD" letter-spacing="1">LIVE · airlens.cloud</text>
    <text x="832" y="50" fill="#7E8798" text-anchor="end" letter-spacing="2">SIGNAL OBSERVATORY</text>
  </g>
  <g>
    <animate attributeName="opacity" values="0;0;1" keyTimes="0;0.2;1" dur="1s" begin="0s" fill="freeze"/>
    <text x="44" y="118" class="sans" font-size="42" font-weight="800" fill="#EDEFF4" letter-spacing="-1">AI를 <tspan fill="#D7FF3F">프로덕션</tspan>까지 도달시키는 엔지니어</text>
  </g>
  <g>
    <animate attributeName="opacity" values="0;0;1" keyTimes="0;0.47;1" dur="1.5s" begin="0s" fill="freeze"/>
    <text x="44" y="150" class="mono" font-size="13" fill="#8A93A6">YONGMIN CHO · 조용민 · AI Agent / Infrastructure Engineer</text>
  </g>
  <g>
    <animate attributeName="opacity" values="0;0;1" keyTimes="0;0.58;1" dur="1.9s" begin="0s" fill="freeze"/>
    <text x="44" y="196" class="mono" font-size="13" fill="#EDEFF4">66,307 <tspan fill="#7E8798">req/30d·55국*</tspan>   296 <tspan fill="#7E8798">blocked·0 FP</tspan>   121 <tspan fill="#7E8798">migrations</tspan>   <tspan fill="#7E8798" font-size="10">*requests, not users</tspan></text>
  </g>
  <g>
    <rect x="44" y="212" width="10" height="6" fill="#5A6375" opacity="0.5"/>
    <rect x="60" y="209" width="10" height="9" fill="#5A6375" opacity="0.5"/>
    <rect x="76" y="211" width="10" height="7" fill="#5A6375" opacity="0.5"/>
    <rect x="92" y="207" width="10" height="11" fill="#5A6375" opacity="0.5"/>
    <rect x="108" y="210" width="10" height="8" fill="#5A6375" opacity="0.5"/>
    <rect x="124" y="205" width="10" height="13" fill="#5A6375" opacity="0.5"/>
    <rect x="140" y="208" width="10" height="10" fill="#5A6375" opacity="0.5"/>
    <rect x="156" y="203" width="10" height="15" fill="#D7FF3F">
      <animate attributeName="opacity" values="1;0.45;1" dur="2.6s" repeatCount="indefinite"/>
    </rect>
  </g>
</svg>
